<svg id="Layer_1" data-name="Layer 1" xmlns="http://www.w3.org/2000/svg" xmlns:xlink="http://www.w3.org/1999/xlink" viewBox="0 0 431.27 72.78"><defs><style>.cls-1,.cls-5{fill:#1b1464;}.cls-2{fill:none;}.cls-3{fill:#b2b2b2;}.cls-4{clip-path:url(#clip-path);}.cls-5,.cls-7{fill-rule:evenodd;}.cls-6{clip-path:url(#clip-path-2);}.cls-7{fill:#ba131a;}.cls-8{fill:#fff;}.cls-9{clip-path:url(#clip-path-3);}.cls-10{clip-path:url(#clip-path-4);}.cls-11{clip-path:url(#clip-path-5);}</style><clipPath id="clip-path" transform="translate(-205.31 -229.94)"><path class="cls-1" d="M205.31,301.09m67.88-19c-.54,2.51-1.59,8.62-3.14,18.27-4.88,1-9,1.59-12.27,1.91s-6.69.47-10.08.47a85.84,85.84,0,0,1-13.8-1A32.31,32.31,0,0,1,223,298a26.41,26.41,0,0,1-7.65-6.58,27.7,27.7,0,0,1-4.69-9.35,38.86,38.86,0,0,1-1.61-11.13,40.91,40.91,0,0,1,3.2-15.78,31.46,31.46,0,0,1,8.3-12.06,29.94,29.94,0,0,1,11.67-6.17,50.31,50.31,0,0,1,13.54-1.83,54.67,54.67,0,0,1,13.69,1.68,25.09,25.09,0,0,1,11,5.83A23.88,23.88,0,0,1,277,252a32.74,32.74,0,0,1,1.91,11.29,45,45,0,0,1-.82,8l-44.15.06c0,.67-.06,1.27-.06,1.83q0,6.77,4.86,10a21,21,0,0,0,11.82,3.2,53.64,53.64,0,0,0,9.48-1,134.57,134.57,0,0,0,13.13-3.31Zm-38.74-20.38h20.79c0-.71.06-1.33.06-1.83a12.44,12.44,0,0,0-1.16-5.61,7.24,7.24,0,0,0-3.35-3.4,11.47,11.47,0,0,0-8.51-.47,9.82,9.82,0,0,0-3.18,1.76,11.1,11.1,0,0,0-2.36,2.67,13.44,13.44,0,0,0-1.4,2.94A38.27,38.27,0,0,0,234.46,261.69Z"/></clipPath><clipPath id="clip-path-2" transform="translate(-205.31 -229.94)"><path class="cls-2" d="M281.64,301.09m22.87,0-6.69-20.66-15-43.64q7.19.13,13.35.13c4.28,0,8.32,0,12.1-.13q1.06,4.35,4.21,15.2t6.94,25.86l1.63-5.22c.24-.62,1.23-3.31,2.94-8.06l10-27.77q6.8.13,12.85.13,6.22,0,13-.13l-8.68,18.7-16.19,37.15-3.46,8.45Q324,301,318.38,301,312.19,301,304.51,301.09Z"/></clipPath><clipPath id="clip-path-3" transform="translate(-205.31 -229.94)"><path class="cls-1" d="M357.65,301.09m5.74,0,1.76-30.35,1-23.73.13-10.21c4.62.09,8.68.13,12.21.13,4,0,7.87,0,11.65-.13l-.45,8.38a44.18,44.18,0,0,1,3.31-3.87,20.77,20.77,0,0,1,7.33-4.54,26.9,26.9,0,0,1,4.66-1.16,31.38,31.38,0,0,1,5.42-.45,30,30,0,0,1,5.93.54,22.2,22.2,0,0,1,4.64,1.35,16.07,16.07,0,0,1,3.42,1.89,13.61,13.61,0,0,1,2.54,2.43,27.32,27.32,0,0,1,2.56,3.93,23.28,23.28,0,0,1,5.85-6.13,22.56,22.56,0,0,1,7-3.05,33.68,33.68,0,0,1,8.08-1,33.26,33.26,0,0,1,10.34,1.57,16.66,16.66,0,0,1,8,5.46c2.09,2.58,3.12,5.91,3.12,10,0,1.93-.13,4.84-.41,8.75s-.64,10.62-1.14,20.12-.73,16.17-.77,20q-5.8-.13-11.22-.13c-4.41,0-9,0-13.84.13q.64-8,1.29-20.06t.67-16.72a15.07,15.07,0,0,0-.95-6.08,5.45,5.45,0,0,0-2.43-2.75,7.13,7.13,0,0,0-3.25-.73,6.67,6.67,0,0,0-5.91,3.05,17.12,17.12,0,0,0-2.45,5.27,39.31,39.31,0,0,0-1.2,7.55c-.3,3.44-.52,8-.69,13.61l-.49,16.87c-4.49-.09-8.56-.13-12.17-.13s-8,0-13,.13c.37-3.74.82-10,1.31-18.83s.75-14.7.75-17.69a16.44,16.44,0,0,0-.75-5.67,7.39,7.39,0,0,0-2.11-3,5.46,5.46,0,0,0-3.61-1.14,6.68,6.68,0,0,0-4.28,1.44,11.72,11.72,0,0,0-3.12,4.17,24.23,24.23,0,0,0-1.81,7.46q-.55,4.74-1,14.51t-.58,18.77c-5.07-.09-9.2-.13-12.34-.13C372.89,301,368.55,301,363.39,301.09Z"/></clipPath><clipPath id="clip-path-4" transform="translate(-205.31 -229.94)"><path class="cls-1" d="M477.88,301.09m11.46-46c.8-4.15,1.31-7,1.5-8.6s.56-4,1-7.39q18.15-4,31.19-4a52,52,0,0,1,13.61,1.68,19.8,19.8,0,0,1,9.63,5.37c2.32,2.47,3.46,6,3.46,10.64,0,2.36-.3,7.65-.95,15.86s-1.12,19-1.44,32.37c-4.13-.09-8.21-.13-12.3-.13s-8.15,0-12.6.13q.9-6.93,2-28.59c-1.59.75-2.86,1.29-3.76,1.63s-2.49.84-4.75,1.5-4.06,1.25-5.33,1.7a13,13,0,0,0-3.35,1.76,7,7,0,0,0-2,2.21,5.18,5.18,0,0,0-.6,2.51,4.71,4.71,0,0,0,1.7,3.65c1.14,1,2.94,1.5,5.42,1.5a19.24,19.24,0,0,0,2.84-.21,25.11,25.11,0,0,0,4.15-1.12q-1.84,4.87-4.34,14.19a64.82,64.82,0,0,1-10.27.88,34.1,34.1,0,0,1-13-2.17,16.15,16.15,0,0,1-8-7,19.19,19.19,0,0,1-2.79-9.69,16.65,16.65,0,0,1,1-5.78,20,20,0,0,1,3.25-5.55,22.73,22.73,0,0,1,5.18-4.64,36.75,36.75,0,0,1,8.08-3.61,105.48,105.48,0,0,1,13-3.22c2.17-.41,4.19-.86,6-1.35a24.53,24.53,0,0,0,3.89-1.25,6.33,6.33,0,0,0,1.89-1.27,4.27,4.27,0,0,0,1.05-1.5A4.71,4.71,0,0,0,524,254a4.1,4.1,0,0,0-2-3.68,11,11,0,0,0-5.91-1.29Q505.28,249,489.33,255.13Z"/></clipPath><clipPath id="clip-path-5" transform="translate(-205.31 -229.94)"><path class="cls-1" d="M556,301.09m-1.27,0L569.06,282l10.64-14.6L559.93,236.8q9.19.13,15.82.13,8.29,0,13.65-.13l6.69,14.42c.43.88,1,2.24,1.83,4.08q4.84-8.32,11.46-18.51,5.61.13,13.41.13,7.25,0,13.8-.13L626.5,250q-3,3.9-12.66,17.13,5.8,10,21.17,33.94-7.13-.13-14-.13-8.45,0-15.13.13c-2.73-5.87-4.82-10.23-6.26-13s-2.69-5.4-3.7-7.76l-2,3.46c-.62,1.05-1.59,2.6-2.88,4.66l-8,12.66q-6.8-.13-13.24-.13C564.81,301,559.78,301,554.7,301.09Z"/></clipPath></defs><title>logo</title><path class="cls-3" d="M205.31,301.09m67.88-19c-.54,2.51-1.59,8.62-3.14,18.27-4.88,1-9,1.59-12.27,1.91s-6.69.47-10.08.47a85.84,85.84,0,0,1-13.8-1A32.31,32.31,0,0,1,223,298a26.41,26.41,0,0,1-7.65-6.58,27.7,27.7,0,0,1-4.69-9.35,38.86,38.86,0,0,1-1.61-11.13,40.91,40.91,0,0,1,3.2-15.78,31.46,31.46,0,0,1,8.3-12.06,29.94,29.94,0,0,1,11.67-6.17,50.31,50.31,0,0,1,13.54-1.83,54.67,54.67,0,0,1,13.69,1.68,25.09,25.09,0,0,1,11,5.83A23.88,23.88,0,0,1,277,252a32.74,32.74,0,0,1,1.91,11.29,45,45,0,0,1-.82,8l-44.15.06c0,.67-.06,1.27-.06,1.83q0,6.77,4.86,10a21,21,0,0,0,11.82,3.2,53.64,53.64,0,0,0,9.48-1,134.57,134.57,0,0,0,13.13-3.31Zm-38.74-20.38h20.79c0-.71.06-1.33.06-1.83a12.44,12.44,0,0,0-1.16-5.61,7.24,7.24,0,0,0-3.35-3.4,11.47,11.47,0,0,0-8.51-.47,9.82,9.82,0,0,0-3.18,1.76,11.1,11.1,0,0,0-2.36,2.67,13.44,13.44,0,0,0-1.4,2.94A38.27,38.27,0,0,0,234.46,261.69Z" transform="translate(-205.31 -229.94)"/><path class="cls-1" d="M281.64,301.09m22.87,0-6.69-20.66-15-43.64q7.19.13,13.35.13c4.28,0,8.32,0,12.1-.13q1.06,4.35,4.21,15.2t6.94,25.86l1.63-5.22c.24-.62,1.23-3.31,2.94-8.06l10-27.77q6.8.13,12.85.13,6.22,0,13-.13l-8.68,18.7-16.19,37.15-3.46,8.45Q324,301,318.38,301,312.19,301,304.51,301.09Z" transform="translate(-205.31 -229.94)"/><path class="cls-3" d="M357.65,301.09m5.74,0,1.76-30.35,1-23.73.13-10.21c4.62.09,8.68.13,12.21.13,4,0,7.87,0,11.65-.13l-.45,8.38a44.18,44.18,0,0,1,3.31-3.87,20.77,20.77,0,0,1,7.33-4.54,26.9,26.9,0,0,1,4.66-1.16,31.38,31.38,0,0,1,5.42-.45,30,30,0,0,1,5.93.54,22.2,22.2,0,0,1,4.64,1.35,16.07,16.07,0,0,1,3.42,1.89,13.61,13.61,0,0,1,2.54,2.43,27.32,27.32,0,0,1,2.56,3.93,23.28,23.28,0,0,1,5.85-6.13,22.56,22.56,0,0,1,7-3.05,33.68,33.68,0,0,1,8.08-1,33.26,33.26,0,0,1,10.34,1.57,16.66,16.66,0,0,1,8,5.46c2.09,2.58,3.12,5.91,3.12,10,0,1.93-.13,4.84-.41,8.75s-.64,10.62-1.14,20.12-.73,16.17-.77,20q-5.8-.13-11.22-.13c-4.41,0-9,0-13.84.13q.64-8,1.29-20.06t.67-16.72a15.07,15.07,0,0,0-.95-6.08,5.45,5.45,0,0,0-2.43-2.75,7.13,7.13,0,0,0-3.25-.73,6.67,6.67,0,0,0-5.91,3.05,17.12,17.12,0,0,0-2.45,5.27,39.31,39.31,0,0,0-1.2,7.55c-.3,3.44-.52,8-.69,13.61l-.49,16.87c-4.49-.09-8.56-.13-12.17-.13s-8,0-13,.13c.37-3.74.82-10,1.31-18.83s.75-14.7.75-17.69a16.44,16.44,0,0,0-.75-5.67,7.39,7.39,0,0,0-2.11-3,5.46,5.46,0,0,0-3.61-1.14,6.68,6.68,0,0,0-4.28,1.44,11.72,11.72,0,0,0-3.12,4.17,24.23,24.23,0,0,0-1.81,7.46q-.55,4.74-1,14.51t-.58,18.77c-5.07-.09-9.2-.13-12.34-.13C372.89,301,368.55,301,363.39,301.09Z" transform="translate(-205.31 -229.94)"/><path class="cls-3" d="M477.88,301.09m11.46-46c.8-4.15,1.31-7,1.5-8.6s.56-4,1-7.39q18.15-4,31.19-4a52,52,0,0,1,13.61,1.68,19.8,19.8,0,0,1,9.63,5.37c2.32,2.47,3.46,6,3.46,10.64,0,2.36-.3,7.65-.95,15.86s-1.12,19-1.44,32.37c-4.13-.09-8.21-.13-12.3-.13s-8.15,0-12.6.13q.9-6.93,2-28.59c-1.59.75-2.86,1.29-3.76,1.63s-2.49.84-4.75,1.5-4.06,1.25-5.33,1.7a13,13,0,0,0-3.35,1.76,7,7,0,0,0-2,2.21,5.18,5.18,0,0,0-.6,2.51,4.71,4.71,0,0,0,1.7,3.65c1.14,1,2.94,1.5,5.42,1.5a19.24,19.24,0,0,0,2.84-.21,25.11,25.11,0,0,0,4.15-1.12q-1.84,4.87-4.34,14.19a64.82,64.82,0,0,1-10.27.88,34.1,34.1,0,0,1-13-2.17,16.15,16.15,0,0,1-8-7,19.19,19.19,0,0,1-2.79-9.69,16.65,16.65,0,0,1,1-5.78,20,20,0,0,1,3.25-5.55,22.73,22.73,0,0,1,5.18-4.64,36.75,36.75,0,0,1,8.08-3.61,105.48,105.48,0,0,1,13-3.22c2.17-.41,4.19-.86,6-1.35a24.53,24.53,0,0,0,3.89-1.25,6.33,6.33,0,0,0,1.89-1.27,4.27,4.27,0,0,0,1.05-1.5A4.71,4.71,0,0,0,524,254a4.1,4.1,0,0,0-2-3.68,11,11,0,0,0-5.91-1.29Q505.28,249,489.33,255.13Z" transform="translate(-205.31 -229.94)"/><path class="cls-3" d="M556,301.09m-1.27,0L569.06,282l10.64-14.6L559.93,236.8q9.19.13,15.82.13,8.29,0,13.65-.13l6.69,14.42c.43.88,1,2.24,1.83,4.08q4.84-8.32,11.46-18.51,5.61.13,13.41.13,7.25,0,13.8-.13L626.5,250q-3,3.9-12.66,17.13,5.8,10,21.17,33.94-7.13-.13-14-.13-8.45,0-15.13.13c-2.73-5.87-4.82-10.23-6.26-13s-2.69-5.4-3.7-7.76l-2,3.46c-.62,1.05-1.59,2.6-2.88,4.66l-8,12.66q-6.8-.13-13.24-.13C564.81,301,559.78,301,554.7,301.09Z" transform="translate(-205.31 -229.94)"/><path class="cls-1" d="M205.31,301.09m67.88-19c-.54,2.51-1.59,8.62-3.14,18.27-4.88,1-9,1.59-12.27,1.91s-6.69.47-10.08.47a85.84,85.84,0,0,1-13.8-1A32.31,32.31,0,0,1,223,298a26.41,26.41,0,0,1-7.65-6.58,27.7,27.7,0,0,1-4.69-9.35,38.86,38.86,0,0,1-1.61-11.13,40.91,40.91,0,0,1,3.2-15.78,31.46,31.46,0,0,1,8.3-12.06,29.94,29.94,0,0,1,11.67-6.17,50.31,50.31,0,0,1,13.54-1.83,54.67,54.67,0,0,1,13.69,1.68,25.09,25.09,0,0,1,11,5.83A23.88,23.88,0,0,1,277,252a32.74,32.74,0,0,1,1.91,11.29,45,45,0,0,1-.82,8l-44.15.06c0,.67-.06,1.27-.06,1.83q0,6.77,4.86,10a21,21,0,0,0,11.82,3.2,53.64,53.64,0,0,0,9.48-1,134.57,134.57,0,0,0,13.13-3.31Zm-38.74-20.38h20.79c0-.71.06-1.33.06-1.83a12.44,12.44,0,0,0-1.16-5.61,7.24,7.24,0,0,0-3.35-3.4,11.47,11.47,0,0,0-8.51-.47,9.82,9.82,0,0,0-3.18,1.76,11.1,11.1,0,0,0-2.36,2.67,13.44,13.44,0,0,0-1.4,2.94A38.27,38.27,0,0,0,234.46,261.69Z" transform="translate(-205.31 -229.94)"/><g class="cls-4"><path class="cls-5" d="M321.79,269.56s15.4-28.9,44-33.71-5.11-5.18-5.11-5.18l-41.57,4L315,256.41Z" transform="translate(-205.31 -229.94)"/><path class="cls-1" d="M321.82,268c3.25-5.49,18.34-28.62,43.89-32.91,20.15-3.39-3.9-3.73-5-3.74l-41,3.93-4,21L321.82,268Zm44.12-31.48c-28.28,4.75-43.48,33.26-43.52,33.35l-.65,1.2-.63-1.21-6.8-13.15-.07-.47,4.16-21.76.1-.53.54-.05,41.57-4h.08C360.84,229.94,402.64,230.39,365.95,236.56Z" transform="translate(-205.31 -229.94)"/></g><g class="cls-6"><path class="cls-7" d="M321.79,269.56s15.4-28.9,44-33.71-5.11-5.18-5.11-5.18l-41.57,4L315,256.41Z" transform="translate(-205.31 -229.94)"/><path class="cls-8" d="M321.82,268c3.25-5.49,18.34-28.62,43.89-32.91,20.15-3.39-3.9-3.73-5-3.74l-41,3.93-4,21L321.82,268Zm44.12-31.48c-28.28,4.75-43.48,33.26-43.52,33.35l-.65,1.2-.63-1.21-6.8-13.15-.07-.47,4.16-21.76.1-.53.54-.05,41.57-4h.08C360.84,229.94,402.64,230.39,365.95,236.56Z" transform="translate(-205.31 -229.94)"/></g><path class="cls-1" d="M357.65,301.09m5.74,0,1.76-30.35,1-23.73.13-10.21c4.62.09,8.68.13,12.21.13,4,0,7.87,0,11.65-.13l-.45,8.38a44.18,44.18,0,0,1,3.31-3.87,20.77,20.77,0,0,1,7.33-4.54,26.9,26.9,0,0,1,4.66-1.16,31.38,31.38,0,0,1,5.42-.45,30,30,0,0,1,5.93.54,22.2,22.2,0,0,1,4.64,1.35,16.07,16.07,0,0,1,3.42,1.89,13.61,13.61,0,0,1,2.54,2.43,27.32,27.32,0,0,1,2.56,3.93,23.28,23.28,0,0,1,5.85-6.13,22.56,22.56,0,0,1,7-3.05,33.68,33.68,0,0,1,8.08-1,33.26,33.26,0,0,1,10.34,1.57,16.66,16.66,0,0,1,8,5.46c2.09,2.58,3.12,5.91,3.12,10,0,1.93-.13,4.84-.41,8.75s-.64,10.62-1.14,20.12-.73,16.17-.77,20q-5.8-.13-11.22-.13c-4.41,0-9,0-13.84.13q.64-8,1.29-20.06t.67-16.72a15.07,15.07,0,0,0-.95-6.08,5.45,5.45,0,0,0-2.43-2.75,7.13,7.13,0,0,0-3.25-.73,6.67,6.67,0,0,0-5.91,3.05,17.12,17.12,0,0,0-2.45,5.27,39.31,39.31,0,0,0-1.2,7.55c-.3,3.44-.52,8-.69,13.61l-.49,16.87c-4.49-.09-8.56-.13-12.17-.13s-8,0-13,.13c.37-3.74.82-10,1.31-18.83s.75-14.7.75-17.69a16.44,16.44,0,0,0-.75-5.67,7.39,7.39,0,0,0-2.11-3,5.46,5.46,0,0,0-3.61-1.14,6.68,6.68,0,0,0-4.28,1.44,11.72,11.72,0,0,0-3.12,4.17,24.23,24.23,0,0,0-1.81,7.46q-.55,4.74-1,14.51t-.58,18.77c-5.07-.09-9.2-.13-12.34-.13C372.89,301,368.55,301,363.39,301.09Z" transform="translate(-205.31 -229.94)"/><g class="cls-9"><path class="cls-5" d="M321.79,269.56s15.4-28.9,44-33.71-5.11-5.18-5.11-5.18l-41.57,4L315,256.41Z" transform="translate(-205.31 -229.94)"/><path class="cls-1" d="M321.82,268c3.25-5.49,18.34-28.62,43.89-32.91,20.15-3.39-3.9-3.73-5-3.74l-41,3.93-4,21L321.82,268Zm44.12-31.48c-28.28,4.75-43.48,33.26-43.52,33.35l-.65,1.2-.63-1.21-6.8-13.15-.07-.47,4.16-21.76.1-.53.54-.05,41.57-4h.08C360.84,229.94,402.64,230.39,365.95,236.56Z" transform="translate(-205.31 -229.94)"/></g><path class="cls-1" d="M477.88,301.09m11.46-46c.8-4.15,1.31-7,1.5-8.6s.56-4,1-7.39q18.15-4,31.19-4a52,52,0,0,1,13.61,1.68,19.8,19.8,0,0,1,9.63,5.37c2.32,2.47,3.46,6,3.46,10.64,0,2.36-.3,7.65-.95,15.86s-1.12,19-1.44,32.37c-4.13-.09-8.21-.13-12.3-.13s-8.15,0-12.6.13q.9-6.93,2-28.59c-1.59.75-2.86,1.29-3.76,1.63s-2.49.84-4.75,1.5-4.06,1.25-5.33,1.7a13,13,0,0,0-3.35,1.76,7,7,0,0,0-2,2.21,5.18,5.18,0,0,0-.6,2.51,4.71,4.71,0,0,0,1.7,3.65c1.14,1,2.94,1.5,5.42,1.5a19.24,19.24,0,0,0,2.84-.21,25.11,25.11,0,0,0,4.15-1.12q-1.84,4.87-4.34,14.19a64.82,64.82,0,0,1-10.27.88,34.1,34.1,0,0,1-13-2.17,16.15,16.15,0,0,1-8-7,19.19,19.19,0,0,1-2.79-9.69,16.65,16.65,0,0,1,1-5.78,20,20,0,0,1,3.25-5.55,22.73,22.73,0,0,1,5.18-4.64,36.75,36.75,0,0,1,8.08-3.61,105.48,105.48,0,0,1,13-3.22c2.17-.41,4.19-.86,6-1.35a24.53,24.53,0,0,0,3.89-1.25,6.33,6.33,0,0,0,1.89-1.27,4.27,4.27,0,0,0,1.05-1.5A4.71,4.71,0,0,0,524,254a4.1,4.1,0,0,0-2-3.68,11,11,0,0,0-5.91-1.29Q505.28,249,489.33,255.13Z" transform="translate(-205.31 -229.94)"/><g class="cls-10"><path class="cls-5" d="M321.79,269.56s15.4-28.9,44-33.71-5.11-5.18-5.11-5.18l-41.57,4L315,256.41Z" transform="translate(-205.31 -229.94)"/><path class="cls-1" d="M321.82,268c3.25-5.49,18.34-28.62,43.89-32.91,20.15-3.39-3.9-3.73-5-3.74l-41,3.93-4,21L321.82,268Zm44.12-31.48c-28.28,4.75-43.48,33.26-43.52,33.35l-.65,1.2-.63-1.21-6.8-13.15-.07-.47,4.16-21.76.1-.53.54-.05,41.57-4h.08C360.84,229.94,402.64,230.39,365.95,236.56Z" transform="translate(-205.31 -229.94)"/></g><path class="cls-1" d="M556,301.09m-1.27,0L569.06,282l10.64-14.6L559.93,236.8q9.19.13,15.82.13,8.29,0,13.65-.13l6.69,14.42c.43.88,1,2.24,1.83,4.08q4.84-8.32,11.46-18.51,5.61.13,13.41.13,7.25,0,13.8-.13L626.5,250q-3,3.9-12.66,17.13,5.8,10,21.17,33.94-7.13-.13-14-.13-8.45,0-15.13.13c-2.73-5.87-4.82-10.23-6.26-13s-2.69-5.4-3.7-7.76l-2,3.46c-.62,1.05-1.59,2.6-2.88,4.66l-8,12.66q-6.8-.13-13.24-.13C564.81,301,559.78,301,554.7,301.09Z" transform="translate(-205.31 -229.94)"/><g class="cls-11"><path class="cls-5" d="M321.79,269.56s15.4-28.9,44-33.71-5.11-5.18-5.11-5.18l-41.57,4L315,256.41Z" transform="translate(-205.31 -229.94)"/><path class="cls-1" d="M321.82,268c3.25-5.49,18.34-28.62,43.89-32.91,20.15-3.39-3.9-3.73-5-3.74l-41,3.93-4,21L321.82,268Zm44.12-31.48c-28.28,4.75-43.48,33.26-43.52,33.35l-.65,1.2-.63-1.21-6.8-13.15-.07-.47,4.16-21.76.1-.53.54-.05,41.57-4h.08C360.84,229.94,402.64,230.39,365.95,236.56Z" transform="translate(-205.31 -229.94)"/></g></svg>